<svg width="20" height="12" viewBox="0 0 20 12" fill="none" xmlns="http://www.w3.org/2000/svg">
<path d="M19 1C19.0095 0.93032 19.0095 0.85968 19 0.79C18.9913 0.731289 18.9745 0.674074 18.95 0.62C18.9236 0.571127 18.8935 0.524327 18.86 0.48C18.8219 0.416753 18.7748 0.359469 18.72 0.31L18.6 0.24C18.5423 0.196956 18.4782 0.163215 18.41 0.14H18.21C18.1491 0.080995 18.0779 0.0335575 18 0H13C12.7348 0 12.4804 0.105357 12.2929 0.292893C12.1053 0.48043 12 0.734784 12 1C12 1.26522 12.1053 1.51957 12.2929 1.70711C12.4804 1.89464 12.7348 2 13 2H15.83L11.83 6.71L7.50999 4.14C7.30537 4.0183 7.06405 3.97359 6.82941 4.01392C6.59478 4.05425 6.38223 4.17696 6.22999 4.36L1.22999 10.36C1.14579 10.461 1.08235 10.5777 1.0433 10.7033C1.00426 10.8289 0.990378 10.961 1.00245 11.092C1.01453 11.2229 1.05233 11.3503 1.11368 11.4666C1.17503 11.5829 1.25873 11.6861 1.35999 11.77C1.5399 11.9191 1.76634 12.0005 1.99999 12C2.1469 12.0002 2.29206 11.9681 2.42514 11.9059C2.55823 11.8437 2.67597 11.7529 2.76999 11.64L7.21999 6.3L11.49 8.86C11.6925 8.98013 11.9309 9.02493 12.1633 8.98651C12.3956 8.9481 12.6069 8.82893 12.76 8.65L17 3.7V6C17 6.26522 17.1053 6.51957 17.2929 6.70711C17.4804 6.89464 17.7348 7 18 7C18.2652 7 18.5196 6.89464 18.7071 6.70711C18.8946 6.51957 19 6.26522 19 6V1Z" fill="black"/>
</svg>
