<svg width="8" height="9" viewBox="0 0 8 9" fill="none" xmlns="http://www.w3.org/2000/svg">
<path d="M7.41333 1.14001C7.34432 1.08537 7.26517 1.04494 7.18044 1.02105C7.09572 0.997164 7.00711 0.990289 6.91972 1.00083C6.83233 1.01136 6.74789 1.0391 6.67127 1.08244C6.59465 1.12578 6.52738 1.18387 6.47333 1.25334L1.80666 7.25334L1.4 6.75334L0.559998 7.83334L1.29333 8.74668C1.35608 8.82402 1.43535 8.88633 1.52534 8.92902C1.61533 8.9717 1.71373 8.99368 1.81333 8.99334C1.91347 8.99288 2.01221 8.96987 2.10224 8.92601C2.19226 8.88215 2.27125 8.81858 2.33333 8.74001L7.55333 2.07334C7.60551 2.0029 7.64328 1.92286 7.66449 1.8378C7.68569 1.75274 7.68991 1.66433 7.67691 1.57764C7.66391 1.49095 7.63393 1.40767 7.5887 1.33258C7.54348 1.25748 7.48388 1.19204 7.41333 1.14001V1.14001Z" fill="white"/>
</svg>
