<svg width="15" height="13" viewBox="0 0 15 13" fill="none" xmlns="http://www.w3.org/2000/svg">
<path d="M0.59 1.76L3.39 4.56C3.59154 4.5247 3.79545 4.50464 4 4.5C4.92826 4.5 5.8185 4.86875 6.47487 5.52513C7.13125 6.18151 7.5 7.07174 7.5 8C7.49536 8.20455 7.4753 8.40846 7.44 8.61L10.12 11.29L10.96 12.13C12.1028 11.0693 13.0834 9.84622 13.87 8.5C13.9578 8.34798 14.004 8.17554 14.004 8C14.004 7.82446 13.9578 7.65202 13.87 7.5C13.23 6.39 9.71 0.820001 3.73 1C2.62245 1.03285 1.52924 1.25962 0.5 1.67L0.59 1.76Z" fill="black"/>
</svg>
