<svg width="11" height="9" viewBox="0 0 11 9" fill="none" xmlns="http://www.w3.org/2000/svg">
<path d="M10.08 1.14001C10.011 1.08537 9.93184 1.04494 9.84711 1.02105C9.76239 0.997164 9.67378 0.990289 9.58639 1.00083C9.499 1.01136 9.41456 1.0391 9.33794 1.08244C9.26132 1.12578 9.19405 1.18387 9.14 1.25334L4.47333 7.25334L2.18667 4.46668C2.13303 4.39528 2.0656 4.33539 1.98837 4.29055C1.91114 4.24571 1.82569 4.21685 1.73709 4.20568C1.64849 4.1945 1.55855 4.20124 1.47261 4.22549C1.38667 4.24974 1.30647 4.29101 1.23678 4.34685C1.16709 4.40269 1.10933 4.47196 1.06693 4.55055C1.02453 4.62914 0.998349 4.71545 0.989944 4.80435C0.981539 4.89326 0.991081 4.98294 1.018 5.06809C1.04493 5.15323 1.08868 5.2321 1.14667 5.30001L3.92667 8.75334C3.98941 8.83069 4.06869 8.893 4.15868 8.93568C4.24866 8.97837 4.34707 9.00035 4.44667 9.00001C4.55239 9.00473 4.65771 8.98422 4.75393 8.94017C4.85015 8.89611 4.9345 8.82979 5 8.74668L10.22 2.08001C10.2732 2.00936 10.3118 1.92883 10.3336 1.8431C10.3554 1.75738 10.3599 1.66817 10.3469 1.58069C10.3339 1.4932 10.3036 1.40918 10.2577 1.33352C10.2119 1.25787 10.1515 1.19209 10.08 1.14001V1.14001Z" fill="white"/>
</svg>
