<svg width="48" height="48" viewBox="0 0 48 48" fill="none" xmlns="http://www.w3.org/2000/svg">
<rect opacity="0.5" width="48" height="48" rx="2" fill="#333333"/>
<g clip-path="url(#clip0_16760_14541)">
<path d="M20.0001 37.9999C19.5328 38.0008 19.0799 37.838 18.7201 37.5399C18.5176 37.372 18.3502 37.1658 18.2275 36.9331C18.1048 36.7004 18.0292 36.4458 18.005 36.1838C17.9809 35.9219 18.0086 35.6577 18.0867 35.4065C18.1648 35.1553 18.2917 34.922 18.4601 34.7199L27.4201 23.9999L18.7801 13.2599C18.614 13.0553 18.4899 12.8199 18.415 12.5672C18.3402 12.3146 18.316 12.0496 18.3439 11.7875C18.3717 11.5255 18.4511 11.2715 18.5775 11.0402C18.7038 10.8089 18.8746 10.6049 19.0801 10.4399C19.287 10.2578 19.5294 10.1205 19.7919 10.0365C20.0544 9.95252 20.3315 9.92371 20.6057 9.95188C20.8798 9.98005 21.1452 10.0646 21.3852 10.2002C21.6252 10.3358 21.8345 10.5195 22.0001 10.7399L31.6601 22.7399C31.9543 23.0977 32.1151 23.5466 32.1151 24.0099C32.1151 24.4731 31.9543 24.922 31.6601 25.2799L21.6601 37.2799C21.4595 37.5219 21.2046 37.7132 20.9162 37.8383C20.6278 37.9634 20.3139 38.0188 20.0001 37.9999Z" fill="white"/>
</g>
<defs>
<clipPath id="clip0_16760_14541">
<rect width="48" height="48" fill="white"/>
</clipPath>
</defs>
</svg>
