<!DOCTYPE svg PUBLIC "-//W3C//DTD SVG 1.1//EN" "http://www.w3.org/Graphics/SVG/1.1/DTD/svg11.dtd">
<!-- Uploaded to: SVG Repo, www.svgrepo.com, Transformed by: SVG Repo Mixer Tools -->
<svg version="1.1" id="Layer_1" xmlns="http://www.w3.org/2000/svg" xmlns:xlink="http://www.w3.org/1999/xlink" viewBox="0 0 512.001 512.001" xml:space="preserve" width="800px" height="800px" fill="#000000">
<g id="SVGRepo_bgCarrier" stroke-width="0"/>
<g id="SVGRepo_tracerCarrier" stroke-linecap="round" stroke-linejoin="round"/>
<g id="SVGRepo_iconCarrier"> <path style="fill:#000000;" d="M500.112,441.838H11.888C5.323,441.838,0,436.515,0,429.949V82.052 c0-6.566,5.323-11.888,11.888-11.888h488.224c6.566,0,11.889,5.323,11.889,11.888v347.898 C512,436.515,506.678,441.838,500.112,441.838z"/> <rect x="33.295" y="103.458" style="fill:#ffffff;" width="445.407" height="305.08"/> <g> <path style="opacity:0.2;fill:#25292F;enable-background:new ;" d="M410.238,139.129l-90.804,136.852l-52.948-79.799 c-4.08-6.148-13.108-6.148-17.188,0l-140.905,212.36h370.313V216.415c-20.098-30.289-40.246-60.655-51.285-77.293 C423.341,132.974,414.316,132.981,410.238,139.129z"/> <path style="opacity:0.2;fill:#25292F;enable-background:new ;" d="M410.238,139.129l-48.694,73.386 c16.41,10.91,36.104,17.272,57.287,17.272c21.183,0,40.877-6.362,57.287-17.272l-48.694-73.386 C423.345,132.981,414.316,132.981,410.238,139.129z"/> <path style="opacity:0.2;fill:#25292F;enable-background:new ;" d="M249.298,196.182l-28.281,42.623 c10.563,7.023,23.239,11.124,36.875,11.124s26.311-4.101,36.875-11.124l-28.281-42.623 C262.406,190.034,253.378,190.034,249.298,196.182z"/> <circle style="opacity:0.2;fill:#25292F;enable-background:new ;" cx="141.747" cy="162.035" r="32.296"/> </g> <path style="opacity:0.2;enable-background:new ;" d="M509.684,432.266H21.461c-6.566,0-11.888-5.323-11.888-11.888V72.479 c0-0.724,0.075-1.429,0.199-2.116C4.217,71.362,0,76.21,0,82.052v347.898c0,6.566,5.323,11.888,11.888,11.888h488.224 c5.842,0,10.69-4.217,11.69-9.771C511.113,432.19,510.409,432.266,509.684,432.266z"/> <path style="fill:#000000;" d="M292.863,441.838H11.888C5.323,441.838,0,436.515,0,429.949V232.498 c0-6.566,5.323-11.888,11.888-11.888h280.975c6.566,0,11.888,5.323,11.888,11.888v197.451 C304.752,436.515,299.429,441.838,292.863,441.838z"/> <path style="opacity:0.2;enable-background:new ;" d="M25.27,428.456c-6.566,0-11.888-5.323-11.888-11.888V220.61h-1.493 C5.323,220.61,0,225.932,0,232.498v197.451c0,6.566,5.323,11.888,11.888,11.888h280.975c6.566,0,11.888-5.323,11.888-11.888v-1.493 H25.27z"/> <rect x="33.295" y="253.906" style="fill:#ffffff;" width="238.158" height="154.643"/> <g> <rect x="144.064" y="258.276" transform="matrix(-0.5446 -0.8387 0.8387 -0.5446 -42.4244 639.426)" style="fill:#000000;" width="16.647" height="145.91"/> <path style="fill:#000000;" d="M116.647,384.689c-0.574,0-1.155-0.06-1.738-0.183l-25.454-5.409 c-4.497-0.956-7.367-5.376-6.411-9.872l5.41-25.454c0.956-4.496,5.375-7.367,9.872-6.411c4.497,0.956,7.367,5.376,6.411,9.872 l-3.679,17.312l17.311,3.679c4.497,0.956,7.367,5.376,6.411,9.872C123.949,382.007,120.494,384.689,116.647,384.689z"/> <path style="fill:#000000;" d="M208.165,325.272c-0.574,0-1.154-0.06-1.738-0.183c-4.497-0.956-7.367-5.375-6.411-9.872 l3.679-17.312l-17.312-3.679c-4.497-0.956-7.367-5.376-6.411-9.872c0.954-4.496,5.378-7.367,9.872-6.411l25.454,5.41 c4.497,0.956,7.367,5.375,6.411,9.872l-5.409,25.454C215.467,322.59,212.011,325.272,208.165,325.272z"/> </g> </g>
</svg>