<svg width="48" height="48" viewBox="0 0 48 48" fill="none" xmlns="http://www.w3.org/2000/svg">
<rect opacity="0.5" width="48" height="48" rx="2" fill="none"/>
<g clip-path="url(#clip0_16760_14544)">
<path d="M27.6598 37.9996C27.361 38.0006 27.0658 37.9346 26.7959 37.8066C26.5259 37.6785 26.2881 37.4916 26.0998 37.2596L16.4398 25.2596C16.1457 24.9017 15.9849 24.4528 15.9849 23.9896C15.9849 23.5263 16.1457 23.0774 16.4398 22.7196L26.4398 10.7196C26.7793 10.3111 27.2671 10.0543 27.796 10.0055C28.3248 9.95677 28.8514 10.1201 29.2598 10.4596C29.6683 10.7991 29.9251 11.2869 29.9739 11.8157C30.0226 12.3446 29.8593 12.8711 29.5198 13.2796L20.5798 23.9996L29.2198 34.7196C29.4644 35.0131 29.6198 35.3706 29.6675 35.7497C29.7153 36.1288 29.6534 36.5137 29.4893 36.8587C29.3252 37.2038 29.0657 37.4946 28.7415 37.6968C28.4173 37.899 28.0419 38.004 27.6598 37.9996Z" fill="white"/>
</g>
<defs>
<clipPath id="clip0_16760_14544">
<rect width="48" height="48" fill="white"/>
</clipPath>
</defs>
</svg>
