<svg width="15" height="12" viewBox="0 0 15 12" fill="none" xmlns="http://www.w3.org/2000/svg">
<path d="M14.29 11.12L13 9.78L12.93 9.71L11.66 8.44C11.4585 8.47531 11.2546 8.49536 11.05 8.5C10.5862 8.50663 10.1257 8.42099 9.69526 8.24807C9.26483 8.07515 8.87307 7.81839 8.54275 7.49272C8.21243 7.16706 7.95014 6.77898 7.77113 6.35105C7.59212 5.92311 7.49996 5.46387 7.50001 5C7.50465 4.79545 7.5247 4.59154 7.56001 4.39L5.56001 2.39L4.00001 0.870003C2.87133 1.93347 1.90442 3.15644 1.13001 4.5C1.04224 4.65202 0.996033 4.82447 0.996033 5C0.996033 5.17554 1.04224 5.34798 1.13001 5.5C1.76001 6.59 5.13001 12 11.02 12H11.27C12.3776 11.9671 13.4708 11.7404 14.5 11.33L14.29 11.12Z" fill="black"/>
</svg>
