<svg width="20" height="20" viewBox="0 0 20 20" fill="none" xmlns="http://www.w3.org/2000/svg">
<path d="M18.71 17.29L17.41 16L15.41 14L5.89 4.47L4.42 3L2.71 1.29C2.61676 1.19676 2.50607 1.1228 2.38425 1.07234C2.26243 1.02188 2.13186 0.995911 2 0.995911C1.86814 0.995911 1.73758 1.02188 1.61575 1.07234C1.49393 1.1228 1.38324 1.19676 1.29 1.29C1.1017 1.47831 0.995911 1.7337 0.995911 2C0.995911 2.2663 1.1017 2.5217 1.29 2.71L3.53 5L5.28 6.7L12.59 14L12.66 14.07L14 15.41L14.59 16L17.29 18.71C17.383 18.8037 17.4936 18.8781 17.6154 18.9289C17.7373 18.9797 17.868 19.0058 18 19.0058C18.132 19.0058 18.2627 18.9797 18.3846 18.9289C18.5064 18.8781 18.617 18.8037 18.71 18.71C18.8037 18.617 18.8781 18.5064 18.9289 18.3846C18.9797 18.2627 19.0058 18.132 19.0058 18C19.0058 17.868 18.9797 17.7373 18.9289 17.6154C18.8781 17.4936 18.8037 17.383 18.71 17.29V17.29Z" fill="black"/>
</svg>
